<svg width="569" height="829" viewBox="0 0 569 829" fill="none" xmlns="http://www.w3.org/2000/svg">
<path d="M400.34 65.32C400.34 61.672 402.38 59.848 406.46 59.848C410.54 59.848 412.58 61.672 412.58 65.32C412.58 68.536 411.764 71.512 410.132 74.248C408.5 77.032 406.532 79.24 404.228 80.872L401.204 79C402.788 76.36 403.58 73.768 403.58 71.224C403.58 70.84 403.556 70.48 403.508 70.144C402.596 69.856 401.828 69.28 401.204 68.416C400.628 67.504 400.34 66.472 400.34 65.32Z" fill="#357C46"/>
<circle cx="430.893" cy="364.602" r="49.7184" fill="#357C46"/>
<circle cx="83" cy="513.641" r="50" fill="#1F2F98"/>
<path d="M480.612 486.136L406.034 510.995L168.49 364.602L480.612 486.136Z" fill="#27A979"/>
<path d="M458.514 477.85L33.1455 718.155L452.99 618.718L480.612 486.136L458.514 477.85Z" fill="#357C46"/>
<path d="M33.1452 408.796L107.723 383.937L345.267 530.33L33.1452 408.796Z" fill="#3547BD"/>
<path d="M55.2424 417.083L480.611 176.777L60.7667 276.214L33.1453 408.796L55.2424 417.083Z" fill="#1F2F98"/>
</svg>
